Youth Without Youth (2007)

Director: Francis Ford Coppola

Youth Without Youth is a 2007 film by Francis Ford Coppola, based on the novella of the same name by Romanian author Mircea Eliade. It was the first film that Coppola had directed in ten years since 1997's The Rainmaker. It was distributed through Sony Pictures Classics in the United States and Pathé in the UK and France. The music was composed by Grammy award-winning Argentinan classical composer Osvaldo Golijov. Originally the film was to be distributed by United Artists. Sony Pictures Classics distributed the film when it opened in limited release in the United States on December 14, 2007. In an interview, Coppola said that he made the film as a meditation on time and on consciousness, which he considers a "changing tapestry of illusion," but he admitted that the film may also be appreciated as a beautiful love story, or as a mystery.

Following a wider release in Europe, however, many critics warmed up to it. Comparisons have been made with Federico Fellini and David Lynch, specifically the latter's Mulholland Drive and Inland Empire.

The film was nominated for Best Cinematography at the 2008 Independent Spirit Awards.

Media Info:
General
Complete name                    : J:\Seeding\Youth Without Youth (2007)[DVDRip][big_dad_e™]\Youth Without Youth (2007)[DVDRip][big_dad_e™].avi
Format                           : AVI
Format/Info                      : Audio Video Interleave
Format profile                   : OpenDML
File size                        : 1.21 GiB
Duration                         : 2h 4mn
Overall bit rate                 : 1 386 Kbps
Movie name                       : YOUTH_WITHOUT_YOUTH.Title21.DVDRip
Writing application              : Lavf52.78.4
Original source form/Name        : YOUTH_WITHOUT_YOUTH

Video
ID                               : 0
Format                           : MPEG-4 Visual
Format profile                   : Advanced Simple@L5
Format settings, BVOP            : 2
Format settings, QPel            : No
Format settings, GMC             : No warppoints
Format settings, Matrix          : Default (H.263)
Muxing mode                      : Packed bitstream
Codec ID                         : XVID
Codec ID/Hint                    : XviD
Duration                         : 2h 4mn
Bit rate                         : 204 Kbps
Width                            : 720 pixels
Height                           : 306 pixels
Display aspect ratio             : 2.35:1
Frame rate                       : 23.976 fps
Color space                      : YUV
Chroma subsampling               : 4:2:0
Bit depth                        : 8 bits
Scan type                        : Progressive
Compression mode                 : Lossy
Bits/(Pixel*Frame)               : 0.039
Stream size                      : 182 MiB (15%)
Writing library                  : XviD 1.2.1 (UTC 2008-12-04)

Audio
ID                               : 1
Format                           : MPEG Audio
Format version                   : Version 1
Format profile                   : Layer 3
Mode                             : Joint stereo
Mode extension                   : MS Stereo
Codec ID                         : 55
Codec ID/Hint                    : MP3
Duration                         : 2h 4mn
Bit rate mode                    : Constant
Bit rate                         : 320 Kbps
Channel(s)                       : 2 channels
Sampling rate                    : 48.0 KHz
Compression mode                 : Lossy
Stream size                      : 53.7 MiB (4%)
Alignment                        : Aligned on interleaves
Interleave, duration             : 30 ms (0.72 video frame)

File Scan:
Malwarebytes' Anti-Malware 1.50.1.1100
www.malwarebytes.org

Database version: 6253
4/2/2011 9:11:37 PM
mbam-log-2011-04-02 (21-11-37).txt

Scan type: Quick scan
Objects scanned: 5
Time elapsed: 1 minute(s), 10 second(s)

Memory Processes Infected: 0
Memory Modules Infected: 0
Registry Keys Infected: 0
Registry Values Infected: 0
Registry Data Items Infected: 0
Folders Infected: 0
Files Infected: 0

Memory Processes Infected:
(No malicious items detected)

Memory Modules Infected:
(No malicious items detected)

Registry Keys Infected:
(No malicious items detected)

Registry Values Infected:
(No malicious items detected)

Registry Data Items Infected:
(No malicious items detected)

Folders Infected:
(No malicious items detected)

Files Infected:
(No malicious items detected)

When using TPB please read these important notes:
  
01- Anti-malware apps may warn about keygens, patches, cracks, etc., because of 
    their capabilities, (generating codes, etc.). Sometimes they're added to 
    the virus/spyware database and will be detected as malware. If you don't trust
    the keygens, patches, cracks, etc., don't use them. 
    
02- Before running .exe-files, keygens, patches, cracks, etc., always check first 
    if they can be unpacked. Often some third party added a virus to the 
    original file, repacked it and uploaded it again.

03- Letting anti-malware apps send scan results to their companies can cause
    keygens, patches, cracks, etc., to be added to their virus-database.

04- Firewalls which are set to automatically determine connections will allow 
    apps & malware!. Avoid this by manually configuring your firewall.

05- Usually (new) torrents with many downloads and seeders in a brief period is
    suspicious! Torrents with the Skull & Crossbones icon are trusted.

06- Some people use multiple accounts and post fake comments 
    and/or files trying to spread confusion. They seldom seriously
    comment or have any torrents, or a just a few to look passable.

07- Clicking on unknown links can cause malware to be installed on your machine.
  
08- In general often there are more fake and negative comments than reliable and
    positive comments.

09- In some countries uploading/downloading copyright protected material is 
    forbidden, but showing some appreciation to reliable up-loaders is not.

10- Posting fake and negative comments or fake/infected uploads on TPB can result
    in getting banned from TPB!

Requests?  Find me on SuprBay. http://forum.suprbay.org
 

For reporting bad or suspicious torrents:  
http://forum.suprbay.org/forumdisplay.php?fid=29

For more of my torrents: 
https://thepiratebay.org/user/big_dad_e/  (Secured)

All torrents scanned with:
Norton Anti-virus
Malwarebytes' Anti-malware
 
http://www.pirate-party.us/

ALWAYS SEED & THANKS SEEDERS!